<?xml version="1.0" encoding="UTF-8"?>
<svg viewBox="0 0 400 400" xmlns="http://www.w3.org/2000/svg" xmlns:xlink="http://www.w3.org/1999/xlink">
 <defs>
  <filter id="f">
   <feGaussianBlur stdDeviation="4.0641"/>
  </filter>
  <linearGradient id="a">
   <stop stop-color="#e9e9e9" offset="0"/>
   <stop stop-color="#bbb" offset=".0469"/>
   <stop stop-color="#aea6a6" offset=".75"/>
   <stop stop-color="#d6d2d2" offset=".875"/>
   <stop stop-color="#a6a2a2" offset=".9054"/>
   <stop stop-color="#fff7f7" offset=".9498"/>
   <stop stop-color="#978b8b" offset=".9876"/>
   <stop stop-color="#d6d2d2" offset="1"/>
  </linearGradient>
  <linearGradient id="c" x1="3372.9" x2="3861.5" y1="-1588" y2="-1241.8" gradientUnits="userSpaceOnUse">
   <stop stop-color="#555" offset="0"/>
   <stop stop-color="#8e8e8e" stop-opacity=".5804" offset=".5"/>
   <stop stop-color="#555" stop-opacity=".3235" offset="1"/>
  </linearGradient>
  <linearGradient id="b" x1="291.21" x2="366.03" y1="961.97" y2="943.17" gradientUnits="userSpaceOnUse">
   <stop offset="0"/>
   <stop stop-opacity="0" offset="1"/>
  </linearGradient>
  <linearGradient id="e" x1="364.16" x2="233.6" y1="780.34" y2="824.74" gradientUnits="userSpaceOnUse" xlink:href="#a"/>
  <linearGradient id="d" x1="307.39" x2="202.68" y1="876.1" y2="712.14" gradientUnits="userSpaceOnUse" xlink:href="#a"/>
 </defs>
 <g transform="translate(0 -652.36)">
  <g font-family="Eras Bold ITC" font-size="225.16">
   <g transform="translate(9.4052e-7 -9)">
    <g transform="matrix(.39826 0 0 .39826 12.354 826.95)">
     <path d="m0 0.36031h502.09v500.87h-502.09z" fill="#fff" stroke="#fff" stroke-linejoin="round" stroke-width="1.266"/>
     <path d="m14.351 427.74v-56.908h113.82v113.82h-113.82v-56.908zm97.557 0v-40.649h-81.298v81.298h81.298v-40.649zm-65.038 0v-24.389h48.779v48.779h-48.779v-24.389zm130.08 48.779v-8.1298h-16.26v-16.26h-16.26v-48.779h16.26v-32.519h-16.26v-16.26h16.26v-16.26h-32.519v16.26h-48.779v-16.26h-16.26v16.26h-16.26v-65.038h-16.26v65.038h-16.26v-65.038h16.26v-16.26h-16.26v-16.26h16.26v-32.519h-16.26v-16.26h32.519v48.779h32.519v-16.26h-16.26v-16.26h16.26v16.26h16.26v-16.26h16.26v-16.26h16.26v-16.26h-32.519v-32.519h-16.26v48.779h-16.26v-16.26h-32.519v-32.519h16.26v-16.26h48.779v16.26h16.26v-16.26h16.26v16.26h-16.26v16.26h16.26v16.26h16.26v-97.557h32.519v16.26h16.26v32.519h16.26v16.26h16.26v-16.26h16.26v16.26h16.26v16.26h-16.26v-16.26h-16.26v16.26h-16.26v32.519h16.26v-16.26h16.26v16.26h32.519v-16.26h32.519v16.26h-16.26v16.26h16.26v16.26h16.26v-65.038h-48.779v-16.26h48.779v-16.26h-65.038v-16.26h-16.26v-16.26h16.26v-16.26h-16.26v-16.26h16.26v-48.779h-48.779v16.26h16.26v16.26h-16.26v-16.26h-16.26v32.519h-32.519v-16.26h-16.26v-48.779h162.6v32.519h16.26v16.26h-16.26v16.26h32.519v16.26h16.26v48.779h48.779v16.26h32.519v-16.26h48.779v32.519h-16.26v-16.26h-16.26v32.519h16.26v16.26h16.26v32.519h-16.26v32.519h16.26v32.519h-32.519v16.26h-32.519v-16.26h-32.519v16.26h16.26v16.26h65.038v-16.26h16.26v16.26h-16.26v16.26h16.26v16.26h-32.519v-16.26h-16.26v16.26h-16.26v16.26h16.26v16.26h16.26v16.26h-48.779v16.26h16.26v16.26h16.26v-16.26h32.519v32.519h-16.26v-16.26h-16.26v16.26h-16.26v16.26h-16.26v-48.779h-16.26v48.779h-97.557v-16.26h-16.26v-16.26h-16.26v-16.26h16.26v16.26h16.26v-16.26h32.519v-16.26h-97.557v-16.26h-32.519v-16.26h-16.26v16.26h-16.26v48.779h16.26v-16.26h16.26v32.519h16.26v-32.519h16.26v32.519h-16.26v16.26h-32.519v-8.1298zm195.11-16.26v-8.1298h-16.26v-16.26h32.519v-16.26h-32.519v16.26h-16.26v16.26h-48.779v16.26h81.298v-8.1298zm-32.519-48.779v-8.1298h-16.26v16.26h16.26v-8.1298zm-81.298-16.26v-8.1298h-32.519v-16.26h32.519v-16.26h16.26v16.26h16.26v16.26h-16.26v16.26h16.26v-16.26h16.26v-16.26h32.519v-32.519h32.519v-32.519h16.26v-32.519h16.26v16.26h16.26v-32.519h16.26v16.26h16.26v16.26h-16.26v16.26h16.26v-16.26h16.26v-16.26h-16.26v-81.298h-16.26v48.779h-32.519v-16.26h16.26v-16.26h-48.779v-48.779h-16.26v-16.26h-16.26v16.26h-16.26v16.26h16.26v16.26h16.26v16.26h-16.26v16.26h16.26v-16.26h16.26v16.26h16.26v16.26h-16.26v16.26h-16.26v16.26h16.26v32.519h-16.26v-16.26h-32.519v-16.26h-16.26v-32.519h-16.26v-16.26h-32.519v16.26h-16.26v32.519h16.26v-16.26h16.26v32.519h-16.26v16.26h16.26v-16.26h16.26v32.519h-32.519v32.519h-65.038v-16.26h16.26v-48.779h16.26v-48.779h-16.26v32.519h-65.038v-16.26h32.519v-32.519h16.26v-16.26h-32.519v-16.26h32.519v-48.779h-16.26v-32.519h-16.26v48.779h16.26v16.26h-16.26v16.26h-16.26v16.26h-16.26v16.26h-16.26v16.26h-16.26v16.26h-16.26v32.519h-16.26v-16.26h-16.26v-16.26h-16.26v16.26h16.26v16.26h16.26v32.519h16.26v16.26h16.26v-16.26h-16.26v-32.519h32.519v16.26h32.519v-16.26h32.519v16.26h16.26v32.519h-16.26v16.26h-16.26v16.26h32.519v16.26h32.519v16.26h32.519v-8.1298zm16.26-48.779v-8.1298h32.519v-16.26h16.26v32.519h-48.779v-8.1298zm65.038-32.519v-8.1298h16.26v16.26h-16.26v-8.1298zm-32.519-16.26v-8.1298h-16.26v-16.26h16.26v16.26h16.26v16.26h-16.26v-8.1298zm-195.11-16.26v-8.1298h-16.26v-16.26h16.26v-16.26h16.26v16.26h-16.26v16.26h32.519v16.26h-32.519v-8.1298zm32.519-56.908v-16.26h16.26v32.519h-16.26v-16.26zm195.11-56.908v-8.1298h16.26v16.26h-16.26v-8.1298zm65.038 211.37v-24.389h-48.779v48.779h48.779v-24.389zm-32.519 0v-8.1298h16.26v16.26h-16.26v-8.1298zm-243.89-48.779v-8.1298h-16.26v16.26h16.26v-8.1298zm113.82-16.26v-8.1298h-16.26v16.26h16.26v-8.1298zm97.557-65.038v-8.1298h-16.26v16.26h16.26v-8.1298zm-97.557-32.519v-8.1298h-16.26v16.26h16.26v-8.1298zm-178.85-48.779v-8.1298h-16.26v16.26h16.26v-8.1298zm341.45 0v-8.1298h-16.26v16.26h16.26v-8.1298zm-130.08-48.779v-8.1298h16.26v16.26h16.26v-16.26h16.26v16.26h16.26v-32.519h-32.519v16.26h-16.26v-16.26h-16.26v16.26h-16.26v16.26h16.26v-8.1298zm32.519-65.038v-8.1298h-16.26v-16.26h-16.26v16.26h16.26v16.26h16.26v-8.1298zm-65.038 422.75v-8.1298h16.26v16.26h-16.26v-8.1298zm227.63-81.298v-8.1298h16.26v16.26h-16.26v-8.1298zm-455.27-325.19v-56.908h113.82v113.82h-113.82v-56.908zm97.557 0v-40.649h-81.298v81.298h81.298v-40.649zm-65.038 0v-24.389h48.779v48.779h-48.779v-24.389zm162.6 40.649v-16.26h16.26v32.519h-16.26v-16.26zm162.6-40.649v-56.908h113.82v113.82h-113.82v-56.908zm97.557 0v-40.649h-81.298v81.298h81.298v-40.649zm-65.038 0v-24.389h48.779v48.779h-48.779v-24.389zm-65.038-32.519v-8.1298h16.26v16.26h-16.26v-8.1298z"/>
    </g>
    <path d="m269.62 718.21c-0.68931 2.6304-252.76 215.7-252.76 215.7l188.87-2.6304 64.602-213.46z" fill="#ff0" fill-opacity=".6375"/>
    <path d="m220.92 701.48 66.029-4.1232c9.3823-0.80834 16.386 1.6788 21.114 15.013l78.054 199.48c2.3175 9.9162 3.1135 21.732-6.5745 27.658l-60.048 43.57c-12.757 9.1775-31.244 2.6532-36.724-11.421l-82.852-247.25c-1.1305-10.236 2.4464-20.831 21.002-22.93z" fill="url(#e)"/>
    <path d="m222.83 700.98 68.769-4.9453c9.3823-0.80835 16.386 1.6788 21.114 15.013l73.806 200.31c2.3175 9.9162 2.7024 17.895-6.9856 23.821l-64.158 43.981c-11.49 3.9252-20.475-0.66944-24.255-11.97l-80.797-244.65c-2.1911-9.3369-0.9727-19.969 12.506-21.56z" fill="url(#d)"/>
    <path d="m225.92 702.39 66.36-5.8135c9.2377-0.79589 16.133 1.653 20.789 14.781l72.669 196.68c2.2818 9.7633 2.1211 19.508-7.4175 25.342l-62.63 41.954c-11.313 3.8647-16.922-2.0083-20.643-13.134l-80.226-239.8c-2.1573-9.1929-2.1719-18.447 11.099-20.013z" fill="#1a1a1a"/>
    <g transform="matrix(.15851 -.0568 .0568 .15851 250.06 809.78)" font-family="Eras Bold ITC" font-size="225.16">
     <path d="m0 0.36031h502.09v500.87h-502.09z" fill="#fff" stroke="#fff" stroke-linejoin="round" stroke-width="1.266"/>
     <path d="m14.351 427.74v-56.908h113.82v113.82h-113.82v-56.908zm97.557 0v-40.649h-81.298v81.298h81.298v-40.649zm-65.038 0v-24.389h48.779v48.779h-48.779v-24.389zm130.08 48.779v-8.1298h-16.26v-16.26h-16.26v-48.779h16.26v-32.519h-16.26v-16.26h16.26v-16.26h-32.519v16.26h-48.779v-16.26h-16.26v16.26h-16.26v-65.038h-16.26v65.038h-16.26v-65.038h16.26v-16.26h-16.26v-16.26h16.26v-32.519h-16.26v-16.26h32.519v48.779h32.519v-16.26h-16.26v-16.26h16.26v16.26h16.26v-16.26h16.26v-16.26h16.26v-16.26h-32.519v-32.519h-16.26v48.779h-16.26v-16.26h-32.519v-32.519h16.26v-16.26h48.779v16.26h16.26v-16.26h16.26v16.26h-16.26v16.26h16.26v16.26h16.26v-97.557h32.519v16.26h16.26v32.519h16.26v16.26h16.26v-16.26h16.26v16.26h16.26v16.26h-16.26v-16.26h-16.26v16.26h-16.26v32.519h16.26v-16.26h16.26v16.26h32.519v-16.26h32.519v16.26h-16.26v16.26h16.26v16.26h16.26v-65.038h-48.779v-16.26h48.779v-16.26h-65.038v-16.26h-16.26v-16.26h16.26v-16.26h-16.26v-16.26h16.26v-48.779h-48.779v16.26h16.26v16.26h-16.26v-16.26h-16.26v32.519h-32.519v-16.26h-16.26v-48.779h162.6v32.519h16.26v16.26h-16.26v16.26h32.519v16.26h16.26v48.779h48.779v16.26h32.519v-16.26h48.779v32.519h-16.26v-16.26h-16.26v32.519h16.26v16.26h16.26v32.519h-16.26v32.519h16.26v32.519h-32.519v16.26h-32.519v-16.26h-32.519v16.26h16.26v16.26h65.038v-16.26h16.26v16.26h-16.26v16.26h16.26v16.26h-32.519v-16.26h-16.26v16.26h-16.26v16.26h16.26v16.26h16.26v16.26h-48.779v16.26h16.26v16.26h16.26v-16.26h32.519v32.519h-16.26v-16.26h-16.26v16.26h-16.26v16.26h-16.26v-48.779h-16.26v48.779h-97.557v-16.26h-16.26v-16.26h-16.26v-16.26h16.26v16.26h16.26v-16.26h32.519v-16.26h-97.557v-16.26h-32.519v-16.26h-16.26v16.26h-16.26v48.779h16.26v-16.26h16.26v32.519h16.26v-32.519h16.26v32.519h-16.26v16.26h-32.519v-8.1298zm195.11-16.26v-8.1298h-16.26v-16.26h32.519v-16.26h-32.519v16.26h-16.26v16.26h-48.779v16.26h81.298v-8.1298zm-32.519-48.779v-8.1298h-16.26v16.26h16.26v-8.1298zm-81.298-16.26v-8.1298h-32.519v-16.26h32.519v-16.26h16.26v16.26h16.26v16.26h-16.26v16.26h16.26v-16.26h16.26v-16.26h32.519v-32.519h32.519v-32.519h16.26v-32.519h16.26v16.26h16.26v-32.519h16.26v16.26h16.26v16.26h-16.26v16.26h16.26v-16.26h16.26v-16.26h-16.26v-81.298h-16.26v48.779h-32.519v-16.26h16.26v-16.26h-48.779v-48.779h-16.26v-16.26h-16.26v16.26h-16.26v16.26h16.26v16.26h16.26v16.26h-16.26v16.26h16.26v-16.26h16.26v16.26h16.26v16.26h-16.26v16.26h-16.26v16.26h16.26v32.519h-16.26v-16.26h-32.519v-16.26h-16.26v-32.519h-16.26v-16.26h-32.519v16.26h-16.26v32.519h16.26v-16.26h16.26v32.519h-16.26v16.26h16.26v-16.26h16.26v32.519h-32.519v32.519h-65.038v-16.26h16.26v-48.779h16.26v-48.779h-16.26v32.519h-65.038v-16.26h32.519v-32.519h16.26v-16.26h-32.519v-16.26h32.519v-48.779h-16.26v-32.519h-16.26v48.779h16.26v16.26h-16.26v16.26h-16.26v16.26h-16.26v16.26h-16.26v16.26h-16.26v16.26h-16.26v32.519h-16.26v-16.26h-16.26v-16.26h-16.26v16.26h16.26v16.26h16.26v32.519h16.26v16.26h16.26v-16.26h-16.26v-32.519h32.519v16.26h32.519v-16.26h32.519v16.26h16.26v32.519h-16.26v16.26h-16.26v16.26h32.519v16.26h32.519v16.26h32.519v-8.1298zm16.26-48.779v-8.1298h32.519v-16.26h16.26v32.519h-48.779v-8.1298zm65.038-32.519v-8.1298h16.26v16.26h-16.26v-8.1298zm-32.519-16.26v-8.1298h-16.26v-16.26h16.26v16.26h16.26v16.26h-16.26v-8.1298zm-195.11-16.26v-8.1298h-16.26v-16.26h16.26v-16.26h16.26v16.26h-16.26v16.26h32.519v16.26h-32.519v-8.1298zm32.519-56.908v-16.26h16.26v32.519h-16.26v-16.26zm195.11-56.908v-8.1298h16.26v16.26h-16.26v-8.1298zm65.038 211.37v-24.389h-48.779v48.779h48.779v-24.389zm-32.519 0v-8.1298h16.26v16.26h-16.26v-8.1298zm-243.89-48.779v-8.1298h-16.26v16.26h16.26v-8.1298zm113.82-16.26v-8.1298h-16.26v16.26h16.26v-8.1298zm97.557-65.038v-8.1298h-16.26v16.26h16.26v-8.1298zm-97.557-32.519v-8.1298h-16.26v16.26h16.26v-8.1298zm-178.85-48.779v-8.1298h-16.26v16.26h16.26v-8.1298zm341.45 0v-8.1298h-16.26v16.26h16.26v-8.1298zm-130.08-48.779v-8.1298h16.26v16.26h16.26v-16.26h16.26v16.26h16.26v-32.519h-32.519v16.26h-16.26v-16.26h-16.26v16.26h-16.26v16.26h16.26v-8.1298zm32.519-65.038v-8.1298h-16.26v-16.26h-16.26v16.26h16.26v16.26h16.26v-8.1298zm-65.038 422.75v-8.1298h16.26v16.26h-16.26v-8.1298zm227.63-81.298v-8.1298h16.26v16.26h-16.26v-8.1298zm-455.27-325.19v-56.908h113.82v113.82h-113.82v-56.908zm97.557 0v-40.649h-81.298v81.298h81.298v-40.649zm-65.038 0v-24.389h48.779v48.779h-48.779v-24.389zm162.6 40.649v-16.26h16.26v32.519h-16.26v-16.26zm162.6-40.649v-56.908h113.82v113.82h-113.82v-56.908zm97.557 0v-40.649h-81.298v81.298h81.298v-40.649zm-65.038 0v-24.389h48.779v48.779h-48.779v-24.389zm-65.038-32.519v-8.1298h16.26v16.26h-16.26v-8.1298z"/>
    </g>
    <path d="m295.08 696.45c-0.82493 0.0114-1.6689 0.0568-2.5349 0.13141l-66.362 5.8159c-13.271 1.566-13.255 10.819-11.098 20.012l6.9096 20.652 97.501-15.019-6.1635-16.68c-4.2192-11.898-10.279-15.024-18.253-14.913z" opacity=".6791"/>
    <path d="m377.85 892.95-87.473 47.721 6.583 19.538c3.5607 10.569 8.9244 16.146 19.749 12.475l59.928-39.852c9.127-5.5422 9.2814-14.797 7.0981-24.072l-5.8853-15.809z" fill="#020202" opacity=".7914"/>
    <path transform="matrix(.13565 0 0 .13565 -169.9 1046.5)" d="m3204.6-2558-262.78 23.031-58.719 255.94 548.47 1651.3c27.433 82.02 68.758 125.3 152.16 96.812l459.72-309.28c70.319-43.011 59.387-112.88 42.566-184.85l-287.12-740.3-594.29-792.62z" fill="url(#c)" filter="url(#f)" opacity=".7059"/>
    <g transform="matrix(.13565 0 0 .13565 526.79 1043.3)">
     <path d="m-1976.5-2420.5 127.1-11.847c7.6401-0.7121 15.201 4.7289 16.952 12.2l1.4458 9.0466c1.7514 7.4707-2.9894 14.772-10.63 15.485l-125.67 14.347c-7.6401 0.7122-15.201-4.7288-16.952-12.2l-2.8743-12.261c-1.7514-7.4706 2.9893-14.058 10.629-14.77z" fill="#4c4c4c" opacity=".7914"/>
     <path d="m-1977.3-2420.6 4.6609-0.011s-1.6991 5.8077 2.4999 7.8305c4.7487 2.2877 106.75-8.808 106.75-8.808 7.0835-0.5532 14.447-2.6881 21.074 3.048 5.1539 4.4609 4.9119 13.813 4.9119 13.813 1.6237 5.8033-0.6287 9.3324-7.7122 9.8856l-123.65 13.645c-7.0835 0.5532-13.2-4.3876-14.824-10.191l-3.5577-14.524c-1.6238-5.8032 2.7715-14.135 9.855-14.688z"/>
     <path d="m-1847.8-2409.3c-43.181 3.0307-86.429 14.167-129.66 9.1793-3.4748-3.9745-0.4304 5.3031-0.037 7.6907 0.3987 5.9788 3.7087 11.515 8.7444 9.7158 29.912-5.1943 60.291-6.8749 90.354-11.214 12.304-1.673 24.936-3.2708 36.999-5.9095-0.3299-4.5063-2.0115-10.443-6.3956-9.4618z" fill="#1c1c1c" opacity=".7914"/>
    </g>
    <path transform="matrix(.14203 -.00828 .00828 .14203 380.85 1046)" d="m-145.71-806.21c0 59.962-35.817 108.57-80 108.57s-80-48.609-80-108.57 35.817-108.57 80-108.57 80 48.609 80 108.57z" fill="#1a1a1a"/>
    <path transform="matrix(.87713,-.48026,.33794,.94117,0,0)" d="m4.442 990.41h3.2478a2.0635 2.0635 0 0 1 2.0635 2.0635v5.3408a2.0635 2.0635 0 0 1 -2.0635 2.0635h-3.2478a2.0635 2.0635 0 0 1 -2.0635 -2.0635v-5.3408a2.0635 2.0635 0 0 1 2.0635 -2.0635" fill="#fff" opacity=".6791"/>
    <path transform="matrix(.13189 -.00769 .00769 .13189 377.99 1037.9)" d="m-145.71-806.21c0 59.962-35.817 108.57-80 108.57s-80-48.609-80-108.57 35.817-108.57 80-108.57 80 48.609 80 108.57z" fill="#4b4b4b" opacity=".6791"/>
    <path transform="matrix(.87713,-.48026,.33794,.94117,0,0)" d="m4.6506 991.02h2.8308a1.7985 1.7985 0 0 1 1.7985 1.7985v4.6549a1.7985 1.7985 0 0 1 -1.7985 1.7985h-2.8308a1.7985 1.7985 0 0 1 -1.7985 -1.7985v-4.6549a1.7985 1.7985 0 0 1 1.7985 -1.7985" fill="#4e4e4e"/>
    <path d="m217.36 702.35c-13.271 1.5661-15.173 11.642-13.016 20.834l4.6991 15.458 33.811 98.387c21.822 61.721-32.858-96.091-33.479-98.471-1.6799-6.4294-3.8398-15.979 0.17392-22.621-0.44337-2.6253-0.39797-2.6294 0.86937-6.5392 1.5048-3.6525 8.588-7.9489 8.588-7.9489l-1.6459 0.90034z" opacity=".8503"/>
    <path d="m317.31 984.47c-11.528 6.7588-27.021 0.54907-32.143-8.3016-2.5307-4.3736-5.2124-13.08-5.2124-13.08l-4.5718-13.462 2.278-2.7515-26.847-86.052c-19.839-62.387 31.777 96.454 32.717 98.727 0.92444 2.2352 2.0476 4.8383 3.4499 7.3841 0.26261 0.47672-5.0591-16.334-4.6761-15.942 0.88887 0.9107 0.96334 0.68422 2.6598 2.2268 2.8151 7.5143 10.207 24.143 15.328 25.512 6.3736 1.7038 9.7303 2.1292 14.901 0.50737 1.0812-0.33909 49.258-34.185 50.451-34.7l4.3068 1.9204c-11.194 8.0357-41.615 30.143-52.641 38.011z" fill="url(#b)" opacity=".9626"/>
    <path transform="matrix(.92748,-.37387,0,1,0,0)" d="m281.11 954.4h95.542v4.8085h-95.542z" fill="#f00" fill-opacity=".3347"/>
   </g>
  </g>
 </g>
</svg>
