<?xml version="1.0" encoding="UTF-8" standalone="no"?>
<!-- Created with Inkscape (http://www.inkscape.org/) -->

<svg
   width="1000"
   height="1000"
   viewBox="0 0 264.58332 264.58334"
   version="1.1"
   id="svg5"
   xmlns="http://www.w3.org/2000/svg"
   xmlns:svg="http://www.w3.org/2000/svg"
   xmlns:rdf="http://www.w3.org/1999/02/22-rdf-syntax-ns#"
   xmlns:cc="http://creativecommons.org/ns#"
   xmlns:dc="http://purl.org/dc/elements/1.1/">
  <defs
     id="defs2" />
  <metadata
     id="metadata856">
    <rdf:RDF>
      <cc:Work
         rdf:about="">
        <dc:creator>
          <cc:Agent>
            <dc:title>Inspire Studio</dc:title>
          </cc:Agent>
        </dc:creator>
        <cc:license
           rdf:resource="http://creativecommons.org/publicdomain/zero/1.0/" />
        <dc:description>Thank you for using this artwork. Feel free to visit our page https://www.pinterest.com.au/inspirestudiobox for more designs. We wish you have a wonderful day, everyday. Amitabha</dc:description>
      </cc:Work>
      <cc:License
         rdf:about="http://creativecommons.org/publicdomain/zero/1.0/">
        <cc:permits
           rdf:resource="http://creativecommons.org/ns#Reproduction" />
        <cc:permits
           rdf:resource="http://creativecommons.org/ns#Distribution" />
        <cc:permits
           rdf:resource="http://creativecommons.org/ns#DerivativeWorks" />
      </cc:License>
    </rdf:RDF>
  </metadata>
  <rect
     style="fill:#f7f7f7;fill-opacity:1;stroke:none;stroke-width:10.5833;stroke-linecap:square;stroke-miterlimit:4;stroke-dasharray:none;stroke-opacity:1;paint-order:stroke markers fill"
     id="rect35197"
     width="264.58334"
     height="264.58334"
     x="-5.8764654e-06"
     y="-2.701172e-05" />
  <rect
     style="fill:none;stroke:#4d4d4d;stroke-width:7.93746;stroke-miterlimit:4;stroke-dasharray:none;stroke-opacity:1;paint-order:stroke markers fill"
     id="rect32660"
     width="44.979195"
     height="44.979195"
     x="70.114441"
     y="70.114502" />
  <rect
     style="fill:none;stroke:#4d4d4d;stroke-width:7.93746;stroke-miterlimit:4;stroke-dasharray:none;stroke-opacity:1;paint-order:stroke markers fill"
     id="rect32662"
     width="44.979195"
     height="44.979195"
     x="70.114441"
     y="149.48956" />
  <rect
     style="fill:none;stroke:#4d4d4d;stroke-width:7.93746;stroke-miterlimit:4;stroke-dasharray:none;stroke-opacity:1;paint-order:stroke markers fill"
     id="rect32664"
     width="44.979195"
     height="44.979195"
     x="149.48958"
     y="70.114502" />
  <rect
     style="fill:#0573e1;fill-opacity:1;stroke:none;stroke-width:7.93746;stroke-miterlimit:4;stroke-dasharray:none;stroke-opacity:1;paint-order:stroke markers fill"
     id="rect32674"
     width="18.520834"
     height="18.520834"
     x="83.343628"
     y="83.343689" />
  <rect
     style="fill:#0573e1;fill-opacity:1;stroke:none;stroke-width:7.93746;stroke-miterlimit:4;stroke-dasharray:none;stroke-opacity:1;paint-order:stroke markers fill"
     id="rect32676"
     width="18.520834"
     height="18.520834"
     x="162.71875"
     y="83.343689" />
  <rect
     style="fill:#0573e1;fill-opacity:1;stroke:none;stroke-width:7.93746;stroke-miterlimit:4;stroke-dasharray:none;stroke-opacity:1;paint-order:stroke markers fill"
     id="rect32678"
     width="18.520834"
     height="18.520834"
     x="83.343628"
     y="162.71872" />
  <path
     id="rect32682"
     style="fill:#4d4d4d;fill-opacity:1;stroke:none;stroke-width:30;stroke-miterlimit:4;stroke-dasharray:none;stroke-opacity:1;paint-order:stroke markers fill"
     d="M 474.99805 250 L 474.99805 275 L 474.99805 300 L 499.99805 300 L 499.99805 275 L 499.99805 250 L 474.99805 250 z M 500 275 L 500 300 L 500 325 L 500 350 L 500 375 L 500 400 L 525 400 L 525 375 L 525 350 L 525 325 L 525 300 L 525 275 L 500 275 z M 474.99805 325 L 474.99805 350 L 474.99805 375 L 474.99805 400 L 474.99805 425 L 474.99805 450 L 499.99805 450 L 499.99805 425 L 499.99805 400 L 499.99805 375 L 499.99805 350 L 499.99805 325 L 474.99805 325 z M 500 425 L 500 450 L 525 450 L 525 425 L 500 425 z "
     transform="scale(0.26458333)" />
  <path
     id="rect32752"
     style="fill:#4d4d4d;fill-opacity:1;stroke:none;stroke-width:7.9375;stroke-miterlimit:4;stroke-dasharray:none;stroke-opacity:1;paint-order:stroke markers fill"
     d="m 66.145956,125.6771 v 6.61459 6.61458 h 6.614583 6.614583 6.614584 v -6.61458 h -6.614584 v -6.61459 h -6.614583 z" />
  <path
     id="rect32758"
     style="fill:#4d4d4d;fill-opacity:1;stroke:none;stroke-width:7.9375;stroke-miterlimit:4;stroke-dasharray:none;stroke-opacity:1;paint-order:stroke markers fill"
     d="m 85.989706,125.6771 v 6.61459 h 6.614583 6.614583 v -6.61459 h -6.614583 z" />
  <path
     id="rect32788"
     style="fill:#4d4d4d;fill-opacity:1;stroke:none;stroke-width:7.9375;stroke-miterlimit:4;stroke-dasharray:none;stroke-opacity:1;paint-order:stroke markers fill"
     d="m 105.83346,125.6771 v 6.61459 6.61458 h 6.61458 6.61458 v -6.61458 -6.61459 h -6.61458 z m -6.615104,6.61459 v 6.61458 h 6.614584 v -6.61458 z" />
  <path
     id="rect32818"
     style="fill:#4d4d4d;fill-opacity:1;stroke:none;stroke-width:30;stroke-miterlimit:4;stroke-dasharray:none;stroke-opacity:1;paint-order:stroke markers fill"
     d="M 474.99805 475 L 474.99805 500 L 499.99805 500 L 499.99805 475 L 474.99805 475 z M 500 475 L 500 500 L 500 525 L 500 550 L 500 575 L 500 600 L 525 600 L 525 575 L 525 550 L 525 525 L 550 525 L 575 525 L 600 525 L 625 525 L 650 525 L 650 500 L 650 475 L 625 475 L 600 475 L 600 500 L 575 500 L 575 475 L 550 475 L 525 475 L 500 475 z M 474.99805 550 L 474.99805 575 L 474.99805 600 L 499.99805 600 L 499.99805 575 L 499.99805 550 L 474.99805 550 z "
     transform="scale(0.26458333)" />
  <path
     id="rect32948"
     style="fill:#4d4d4d;fill-opacity:1;stroke:none;stroke-width:30;stroke-miterlimit:4;stroke-dasharray:none;stroke-opacity:1;paint-order:stroke markers fill"
     d="M 700 475 L 700 500 L 675 500 L 675 525 L 700 525 L 725 525 L 750 525 L 750 500 L 750 475 L 725 475 L 700 475 z "
     transform="scale(0.26458333)" />
  <path
     id="rect33002"
     style="fill:#4d4d4d;fill-opacity:1;stroke:none;stroke-width:30;stroke-miterlimit:4;stroke-dasharray:none;stroke-opacity:1;paint-order:stroke markers fill"
     d="M 474.99805 625 L 474.99805 650 L 474.99805 675 L 474.99805 700 L 474.99805 725 L 474.99805 750 L 499.99805 750 L 499.99805 725 L 524.99805 725 L 524.99805 700 L 499.99805 700 L 499.99805 675 L 524.99805 675 L 524.99805 650 L 524.99805 625 L 499.99805 625 L 474.99805 625 z "
     transform="scale(0.26458333)" />
  <path
     id="rect1954"
     style="fill:#0573e1;fill-opacity:1;stroke:none;stroke-width:30;stroke-miterlimit:4;stroke-dasharray:none;stroke-opacity:1;paint-order:stroke markers fill"
     d="M 550 550 L 550 575 L 550 600 L 550 625 L 550 650 L 575 650 L 600 650 L 600 675 L 625 675 L 650 675 L 650 650 L 625 650 L 625 625 L 625 600 L 625 575 L 625 550 L 600 550 L 575 550 L 550 550 z M 575 575 L 600 575 L 600 600 L 600 625 L 575 625 L 575 600 L 575 575 z "
     transform="scale(0.26458333)" />
  <path
     id="rect2262"
     style="fill:#4d4d4d;fill-opacity:1;stroke:none;stroke-width:30;stroke-miterlimit:4;stroke-dasharray:none;stroke-opacity:1;paint-order:stroke markers fill"
     d="M 550 675 L 550 700 L 550 725 L 550 750 L 575 750 L 600 750 L 625 750 L 650 750 L 650 725 L 650 700 L 625 700 L 625 725 L 600 725 L 600 700 L 575 700 L 575 675 L 550 675 z "
     transform="scale(0.26458333)" />
  <path
     id="rect2598"
     style="fill:#4d4d4d;fill-opacity:1;stroke:none;stroke-width:30;stroke-miterlimit:4;stroke-dasharray:none;stroke-opacity:1;paint-order:stroke markers fill"
     d="M 650 550 L 650 575 L 675 575 L 675 600 L 650 600 L 650 625 L 675 625 L 700 625 L 700 600 L 725 600 L 725 625 L 750 625 L 750 600 L 750 575 L 750 550 L 725 550 L 700 550 L 675 550 L 650 550 z "
     transform="scale(0.26458333)" />
  <path
     id="rect2628"
     style="fill:#0573e1;fill-opacity:1;stroke:none;stroke-width:30;stroke-miterlimit:4;stroke-dasharray:none;stroke-opacity:1;paint-order:stroke markers fill"
     d="M 675 650 L 675 675 L 675 700 L 675 725 L 675 750 L 700 750 L 700 725 L 725 725 L 725 700 L 700 700 L 700 675 L 725 675 L 725 700 L 750 700 L 750 675 L 750 650 L 725 650 L 700 650 L 675 650 z M 725 725 L 725 750 L 750 750 L 750 725 L 725 725 z "
     transform="scale(0.26458333)" />
</svg>
