<?xml version='1.0' encoding='utf-8'?>
<svg xmlns="http://www.w3.org/2000/svg" viewBox="0 0 800 826.15"><defs><style>.a{fill:none;}.b{fill:#1c8adb;}.c{clip-path:url(#a);}.d{opacity:0.42;fill:url(#b);}.e{fill:#fff;}</style><clipPath id="a"><circle class="a" cx="400" cy="400" r="400"/></clipPath><linearGradient id="b" x1="412.35" y1="430.57" x2="173.61" y2="669.3" gradientUnits="userSpaceOnUse"><stop offset="0"/><stop offset="1" stop-opacity="0"/></linearGradient></defs><circle class="b" cx="400" cy="400" r="400"/><g class="c"><path class="d" d="M559.44,269.67H433.18a12,12,0,0,0-9.06,4.14l-24.41,24.37V281.67a12,12,0,0,0-12-12H261.44a12,12,0,0,0-9.05,4.14L14.65,511.54C26.91,691.61,135.43,794.67,333.43,826.15L569.08,590.5a5.82,5.82,0,0,0,2.36-4.69V554.59a5.85,5.85,0,0,0-5.85-5.86H550V545.3l19.66-19.67a5.82,5.82,0,0,0,1.8-4.22v-9.76a5.85,5.85,0,0,0-5.85-5.85h-9.76a5.84,5.84,0,0,0-4.22,1.8l-41.13,41.13H507v-3.46l40.57-40.63A5.83,5.83,0,0,0,550,500v-9.76a5.88,5.88,0,0,0-3.87-5.51l23-23a5.82,5.82,0,0,0,2.36-4.69v-9.76a5.85,5.85,0,0,0-5.85-5.85H542.93L567.3,417a12,12,0,0,0,4.14-9.06V281.67A12,12,0,0,0,559.44,269.67Z"/><path class="e" d="M387.71,269.67H261.44a12,12,0,0,0-12,12V407.93a12,12,0,0,0,12,12H387.71a12,12,0,0,0,12-12V281.67A12,12,0,0,0,387.71,269.67Zm-9.47,42.93v85.87H270.91V291.13H378.24Z"/><path class="e" d="M344.78,312.6h-40.4a12,12,0,0,0-12,12V365a12,12,0,0,0,12,12h40.4a12,12,0,0,0,12-12V324.6A12,12,0,0,0,344.78,312.6Z"/><path class="e" d="M516.51,312.6h-40.4a12,12,0,0,0-12,12V365a12,12,0,0,0,12,12h40.4a12,12,0,0,0,12-12V324.6A12,12,0,0,0,516.51,312.6Z"/><path class="e" d="M559.44,269.67H433.18a12,12,0,0,0-12,12V407.93a12,12,0,0,0,12,12H559.44a12,12,0,0,0,12-12V281.67A12,12,0,0,0,559.44,269.67ZM550,312.6v85.87H442.64V291.13H550Z"/><path class="e" d="M427,484.33h15.61V500a5.86,5.86,0,0,0,5.86,5.85h9.76a5.85,5.85,0,0,0,5.85-5.85V484.33h15.61a5.85,5.85,0,0,0,5.86-5.85v-9.76a5.85,5.85,0,0,0-5.86-5.85H464.11V447.25a5.85,5.85,0,0,0-5.85-5.85H427a5.85,5.85,0,0,0-5.85,5.85v31.23A5.85,5.85,0,0,0,427,484.33Z"/><rect class="e" x="485.58" y="484.33" width="21.47" height="21.47" rx="5.85"/><rect class="e" x="528.51" y="484.33" width="21.47" height="21.47" rx="5.85"/><rect class="e" x="549.98" y="505.8" width="21.47" height="21.47" rx="5.85"/><path class="e" d="M565.59,441.4H512.9a5.86,5.86,0,0,0-5.86,5.85v31.23a5.86,5.86,0,0,0,5.86,5.85h9.76a5.85,5.85,0,0,0,5.85-5.85V462.87h37.08a5.85,5.85,0,0,0,5.85-5.86v-9.76A5.85,5.85,0,0,0,565.59,441.4Z"/><path class="e" d="M464.11,554.59a5.85,5.85,0,0,0-5.85-5.86H442.64V511.65a5.85,5.85,0,0,0-5.85-5.85H427a5.85,5.85,0,0,0-5.85,5.85v74.16a5.85,5.85,0,0,0,5.85,5.86h9.76a5.85,5.85,0,0,0,5.85-5.86V570.2h15.62a5.85,5.85,0,0,0,5.85-5.85Z"/><path class="e" d="M565.59,548.73H550V533.12a5.85,5.85,0,0,0-5.86-5.85h-9.75a5.85,5.85,0,0,0-5.86,5.85v15.61H507V533.12a5.85,5.85,0,0,0-5.85-5.85H470a5.85,5.85,0,0,0-5.86,5.85v9.76a5.85,5.85,0,0,0,5.86,5.85h15.61v15.62a5.85,5.85,0,0,0,5.85,5.85H507v15.61a5.86,5.86,0,0,0,5.86,5.86h9.76a5.85,5.85,0,0,0,5.85-5.86V570.2H550v15.61a5.85,5.85,0,0,0,5.85,5.86h9.76a5.85,5.85,0,0,0,5.85-5.86V554.59A5.85,5.85,0,0,0,565.59,548.73Z"/><rect class="e" x="464.11" y="570.2" width="21.47" height="21.47" rx="5.85"/><path class="e" d="M344.78,484.33h-40.4a12,12,0,0,0-12,12v40.4a12,12,0,0,0,12,12h40.4a12,12,0,0,0,12-12v-40.4A12,12,0,0,0,344.78,484.33Z"/><path class="e" d="M387.71,441.4H261.44a12,12,0,0,0-12,12V579.67a12,12,0,0,0,12,12H387.71a12,12,0,0,0,12-12V453.4A12,12,0,0,0,387.71,441.4Zm-9.47,42.93V570.2H270.91V462.87H378.24Z"/></g></svg>